<?xml version="1.0" standalone="no"?>
<!DOCTYPE svg PUBLIC "-//W3C//DTD SVG 20010904//EN"
 "http://www.w3.org/TR/2001/REC-SVG-20010904/DTD/svg10.dtd">
<svg version="1.0" xmlns="http://www.w3.org/2000/svg"
 width="800.000000pt" height="800.000000pt" viewBox="0 0 800.000000 800.000000"
 preserveAspectRatio="xMidYMid meet">

<g transform="translate(0.000000,800.000000) scale(0.100000,-0.100000)"
fill="#000000" stroke="none">
<path d="M0 4000 l0 -4000 4000 0 4000 0 0 4000 0 4000 -4000 0 -4000 0 0
-4000z m5500 2573 l1500 -857 0 -1717 0 -1716 -1500 -857 -1500 -857 -1500
857 -1500 857 0 1716 0 1717 1498 856 c823 471 1498 857 1500 857 1 1 677
-385 1502 -856z"/>
<path d="M2698 6227 l-1297 -742 -1 -1485 0 -1485 1300 -743 1300 -742 1300
742 1300 743 0 1485 -1 1485 -1296 740 c-713 407 -1299 741 -1302 742 -3 0
-590 -333 -1303 -740z m742 -1792 c0 -421 3 -765 6 -765 3 0 255 150 560 332
l554 333 0 432 0 433 320 0 320 0 2 -239 3 -239 398 239 397 238 -2 -201 -3
-202 -397 -239 -398 -238 0 -760 0 -759 -320 0 -320 0 0 566 c0 316 -4 564 -9
562 -4 -1 -256 -151 -559 -333 l-551 -330 -1 -232 0 -233 -320 0 -320 0 0 40
0 39 -392 -235 c-216 -130 -396 -238 -400 -241 -5 -2 -8 86 -8 196 l0 200 398
238 397 239 3 962 2 962 320 0 320 0 0 -765z"/>
</g>
</svg>
